<svg width="12" height="12" viewBox="0 0 12 12" fill="none" xmlns="http://www.w3.org/2000/svg">
    <g clip-path="url(#clip0_8100_34140)">
        <path d="M6 11.25C4.60761 11.25 3.27226 10.6969 2.28769 9.71231C1.30312 8.72774 0.75 7.39239 0.75 6C0.75 4.60761 1.30312 3.27226 2.28769 2.28769C3.27226 1.30312 4.60761 0.75 6 0.75C7.39239 0.75 8.72774 1.30312 9.71231 2.28769C10.6969 3.27226 11.25 4.60761 11.25 6C11.25 7.39239 10.6969 8.72774 9.71231 9.71231C8.72774 10.6969 7.39239 11.25 6 11.25ZM6 12C7.5913 12 9.11742 11.3679 10.2426 10.2426C11.3679 9.11742 12 7.5913 12 6C12 4.4087 11.3679 2.88258 10.2426 1.75736C9.11742 0.632141 7.5913 0 6 0C4.4087 0 2.88258 0.632141 1.75736 1.75736C0.632141 2.88258 0 4.4087 0 6C0 7.5913 0.632141 9.11742 1.75736 10.2426C2.88258 11.3679 4.4087 12 6 12Z" fill="#4050FB"/>
        <path d="M8.22727 3.72747C8.22192 3.73264 8.21691 3.73816 8.21227 3.74397L5.60752 7.06272L4.03777 5.49222C3.93113 5.39286 3.7901 5.33876 3.64437 5.34134C3.49865 5.34391 3.35961 5.40294 3.25655 5.506C3.15349 5.60906 3.09446 5.7481 3.09188 5.89382C3.08931 6.03955 3.14341 6.18059 3.24277 6.28722L5.22727 8.27247C5.28073 8.32583 5.34439 8.36788 5.41445 8.39611C5.48452 8.42433 5.55955 8.43816 5.63508 8.43676C5.7106 8.43536 5.78507 8.41876 5.85404 8.38796C5.92301 8.35716 5.98507 8.31278 6.03652 8.25747L9.03052 4.51497C9.13246 4.40796 9.1882 4.26514 9.18568 4.11737C9.18317 3.9696 9.12259 3.82875 9.01706 3.72529C8.91152 3.62182 8.76951 3.56405 8.62171 3.56446C8.47392 3.56486 8.33223 3.62342 8.22727 3.72747Z" fill="#4050FB"/>
    </g>
    <defs>
        <clipPath id="clip0_8100_34140">
            <rect width="12" height="12" fill="white"/>
        </clipPath>
    </defs>
</svg>
